<svg width="460" height="449" viewBox="0 0 460 449" fill="none" xmlns="http://www.w3.org/2000/svg">
<path d="M157.91 448.36C165.02 445.3 170 438.23 170 430V376C170 374.03 170.16 371.98 170.41 369.9C170.27 369.94 170.14 369.97 170 370C170 370 140 370 134 370C119 370 106 364 100 352C93 339 90 317 72 305C69 303 71 300 77 300C83 301 96 309 104 320C113 331 122 340 138 340C162.87 340 176.2 338.75 184.22 334.45C193.56 320.56 206.49 310 220 310V309.75C163.32 307.93 127.11 289.09 110.25 260C73.6 260.42 41.69 264.05 23.48 267.07C22.9 263.8 22.4 260.51 21.97 257.2C39.94 254.24 70.4 250.73 105.42 250.06C104.3 247.3 103.33 244.47 102.51 241.57C67.4 239.79 37.1 241.18 20.64 242.54C20.44 239.22 20.17 235.91 20.13 232.55C36.62 231.2 66.1 229.85 100.31 231.44C99.52 226.44 99.01 221.33 99.01 216.01C99.01 199.01 105.01 181.01 116.01 166.01C111.01 149.01 104.01 113.01 118.01 100.01C145.01 100.01 164.01 113.01 173.01 121.01C190 114 209 110 230 110C251 110 270 114 286 121C295 113 314 100 341 100C356 114 348 150 343 166C354 181 360 198 359 216C359 220.84 358.55 225.51 357.9 230.09C392.89 228.37 423.17 229.75 439.94 231.11C439.92 234.48 439.61 237.77 439.43 241.1C422.72 239.72 391.68 238.3 355.84 240.21C354.95 243.57 353.87 246.84 352.59 250.01C388.05 250.47 419.24 253.9 438.07 256.9C437.64 260.22 437.14 263.51 436.56 266.77C417.44 263.71 384.85 260.13 347.77 259.95C331.12 288.73 295.57 307.5 240 309.69V310C266 310 290 349 290 376V430C290 438.23 294.98 445.3 302.09 448.36C393.7 418.04 460 331.64 460 230C460 103.18 356.83 0 230 0C103.17 0 0 103.18 0 230C0 331.64 66.3 418.04 157.91 448.36Z" fill="white"/>
</svg>
