<svg width="368" height="352" viewBox="0 0 368 352" fill="none" xmlns="http://www.w3.org/2000/svg">
<path d="M80 352H0V112H80V352ZM40.016 80C17.888 80 0 62.064 0 39.984C0 17.904 17.92 0 40.016 0C62.064 0 80 17.936 80 39.984C80 62.064 62.064 80 40.016 80ZM368 352H291.088V235.2C291.088 207.344 290.56 171.52 251.104 171.52C211.056 171.52 204.896 201.856 204.896 233.184V352H128V111.824H201.824V144.64H202.864C213.136 125.76 238.24 105.856 275.68 105.856C353.6 105.856 368 155.6 368 220.272V352Z" fill="white"/>
</svg>
