<svg width="461" height="460" viewBox="0 0 461 460" fill="none" xmlns="http://www.w3.org/2000/svg">
<path d="M231 0C104.18 0 1.00002 103.18 1.00002 230C1.00002 269.6 11.23 308.54 30.63 342.9L1.37002 447.3C0.410019 450.73 1.34002 454.41 3.82002 456.96C5.73002 458.93 8.33002 460 11 460C11.8 460 12.61 459.9 13.4 459.71L122.36 432.72C155.63 450.58 193.1 460 231 460C357.82 460 461 356.82 461 230C461 103.18 357.82 0 231 0ZM346.7 311.16C341.78 324.78 318.18 337.21 306.84 338.88C296.66 340.37 283.78 341.01 269.64 336.57C261.07 333.87 250.07 330.29 235.98 324.28C176.75 299.02 138.07 240.13 135.11 236.24C132.16 232.35 111 204.63 111 175.94C111 147.25 126.25 133.14 131.67 127.3C137.09 121.46 143.48 120 147.42 120C151.36 120 155.29 120.05 158.74 120.21C162.37 120.39 167.24 118.84 172.03 130.22C176.95 141.9 188.76 170.59 190.22 173.52C191.7 176.44 192.68 179.85 190.72 183.74C188.76 187.63 187.78 190.06 184.82 193.47C181.86 196.88 178.62 201.07 175.96 203.69C173 206.6 169.93 209.75 173.37 215.59C176.81 221.43 188.66 240.52 206.22 255.98C228.77 275.84 247.8 282 253.7 284.92C259.6 287.84 263.05 287.35 266.49 283.46C269.93 279.56 281.25 266.43 285.18 260.6C289.11 254.77 293.05 255.73 298.47 257.68C303.89 259.62 332.92 273.72 338.82 276.64C344.72 279.56 348.66 281.02 350.14 283.45C351.62 285.87 351.62 297.55 346.7 311.16Z" fill="white"/>
</svg>
